# xmcd CD database file
#
# Track frame offsets:
#	150
#	16875
#	35160
#	55021
#	74603
#	91840
#	114537
#	131138
#
# Disc length: 2022 seconds
#
# Revision: 0
# Processed by: cddbd v1.5.2PL0 Copyright (c) Steve Scherf et al.
# Submitted via: CDex 1.70beta2
#
DISCID=6c07e408
DTITLE=Yalo - Escrito en el viento
DYEAR=2008
DGENRE=Blues
TTITLE0=Después de la tormenta
TTITLE1=Último vuelo
TTITLE2=Un déjà vu
TTITLE3=Escrito en el viento
TTITLE4=Paraíso virgen
TTITLE5=Back to the dreams
TTITLE6=Amor anónimo
TTITLE7=Lights
EXTD=YEAR: 2008
EXTT0=
EXTT1=
EXTT2=
EXTT3=
EXTT4=
EXTT5=
EXTT6=
EXTT7=
PLAYORDER=
